<svg viewBox="0 0 543 178" fill="none" xmlns="http://www.w3.org/2000/svg" aria-hidden="true" width="458">
	<g opacity="0.4">
		<path fill="url(#usdc-hero_svg__paint0_linear)" d="M231.524 93.167h95.595v31.286h-95.595z"></path>
		<path d="M352.684 110.235l-27.043 26.055.706-52.823 26.337 26.768z" fill="#C2D3E7"></path>
	</g>
	<g opacity="0.4">
		<path transform="rotate(180 374.047 68.834)" fill="url(#usdc-hero_svg__paint1_linear)"
			  d="M374.047 68.834h88.643v31.286h-88.643z"></path>
		<path d="M259.882 52.403l27.043-26.055-.706 52.823-26.337-26.768z" fill="#C2D3E7"></path>
	</g>
	<g filter="url(#usdc-hero_svg__filter0_d)">
		<rect x="16" y="21.905" width="215.524" height="114.714" rx="4" fill="#3ACC8A"></rect>
	</g>
	<path d="M111.795 100.119c-.325 0-.601-.113-.828-.338-.227-.193-.341-.467-.341-.82v-3.38c-2.337-.225-4.349-.773-6.037-1.642-1.655-.901-2.921-1.995-3.797-3.283-.844-1.32-1.298-2.72-1.363-4.2 0-.29.097-.531.292-.724.227-.194.487-.29.779-.29h4.333c.357 0 .633.08.827.241.228.129.439.354.633.676.357 1.095 1.104 2.012 2.24 2.752 1.168.74 2.775 1.11 4.82 1.11 2.271 0 3.992-.37 5.16-1.11 1.168-.772 1.753-1.835 1.753-3.186 0-.902-.292-1.642-.877-2.221-.584-.58-1.476-1.078-2.677-1.497-1.201-.45-2.97-.965-5.307-1.545-3.83-.901-6.637-2.092-8.422-3.573-1.753-1.512-2.629-3.653-2.629-6.42 0-2.511.909-4.62 2.726-6.326 1.85-1.738 4.366-2.8 7.546-3.186v-3.331c0-.355.114-.628.341-.821.227-.226.503-.338.828-.338h2.969c.325 0 .601.112.828.338.227.225.341.499.341.82v3.428c2.109.29 3.911.918 5.404 1.883 1.525.934 2.677 2.028 3.456 3.283.812 1.256 1.25 2.479 1.315 3.67a.996.996 0 01-1.023 1.014h-4.527c-.714 0-1.201-.306-1.461-.918-.162-1.03-.795-1.883-1.898-2.559-1.104-.708-2.483-1.062-4.139-1.062-1.785 0-3.197.338-4.235 1.014-1.039.676-1.558 1.658-1.558 2.945 0 .901.26 1.642.779 2.221.519.58 1.331 1.094 2.434 1.545 1.136.45 2.759.95 4.869 1.497 2.856.644 5.128 1.368 6.815 2.172 1.721.805 2.986 1.819 3.798 3.042.811 1.223 1.217 2.784 1.217 4.683 0 2.768-1.006 5.037-3.019 6.808-2.012 1.738-4.754 2.784-8.227 3.138v3.331c0 .322-.114.596-.341.821a1.133 1.133 0 01-.828.338h-2.969zM142.497 95.291c-.325 0-.601-.113-.828-.338a1.114 1.114 0 01-.341-.82v-25.01l-7.4 5.649c-.194.16-.422.241-.681.241-.39 0-.714-.177-.974-.53l-2.045-2.608c-.162-.257-.243-.499-.243-.724 0-.386.178-.708.535-.966l10.906-8.352c.292-.226.698-.338 1.217-.338h4.284c.357 0 .633.112.828.338.227.193.34.467.34.82v31.48c0 .321-.113.595-.34.82-.195.225-.471.338-.828.338h-4.43z"
		  fill="#fff"></path>
	<path d="M217.919 49.81a15.776 15.776 0 01-14.299-14.3 1.581 1.581 0 00-1.573-1.438H45.477a1.58 1.58 0 00-1.573 1.437 15.777 15.777 0 01-14.3 14.3 1.574 1.574 0 00-1.437 1.572v54.656a1.58 1.58 0 001.438 1.572 15.776 15.776 0 0114.3 14.3 1.58 1.58 0 001.572 1.437h156.57c.814 0 1.501-.624 1.573-1.437a15.776 15.776 0 0114.299-14.3 1.58 1.58 0 001.438-1.572V51.381c0-.821-.624-1.5-1.438-1.572zm-6.462 51.186a23.823 23.823 0 00-14.45 14.45H50.517a23.825 23.825 0 00-14.45-14.45V56.422a23.825 23.825 0 0014.45-14.45h146.498a23.823 23.823 0 0014.45 14.45v44.574h-.008z"
		  fill="#fff"></path>
	<g filter="url(#usdc-hero_svg__filter1_d)">
		<path d="M453.766 154a73.394 73.394 0 0040.686-12.303 73.049 73.049 0 0026.972-32.761 72.78 72.78 0 004.167-42.178 72.922 72.922 0 00-20.042-37.377 73.3 73.3 0 00-37.496-19.978 73.447 73.447 0 00-42.311 4.154 73.181 73.181 0 00-32.866 26.886A72.834 72.834 0 00380.534 81a72.882 72.882 0 0021.45 51.619A73.348 73.348 0 00453.766 154z"
			  fill="#2775CA"></path>
	</g>
	<path d="M473.828 92.603c0-10.645-6.499-14.234-19.07-15.953-9.292-1.338-11.077-3.513-11.077-7.832 0-4.32 3.143-7.011 9.154-7.011 5.477 0 8.636 1.9 9.932 6.296a2.331 2.331 0 002.213 1.688h4.805a2.145 2.145 0 001.66-.736 2.12 2.12 0 00.492-1.743c-1.526-6.95-6.225-11.132-13.594-12.44v-7.33c0-.606-.241-1.186-.67-1.614a2.295 2.295 0 00-1.619-.668h-4.577c-.607 0-1.189.24-1.618.668a2.278 2.278 0 00-.67 1.613v7.072c-9.154 1.278-14.936 7.3-14.936 15.026 0 9.992 6.102 13.87 18.857 15.589 8.681 1.414 11.152 3.285 11.152 8.197 0 4.912-4.195 8.212-10.115 8.212-7.979 0-10.679-3.482-11.579-8a2.314 2.314 0 00-2.243-1.855h-5.218a2.14 2.14 0 00-2.072 1.56c-.083.3-.1.613-.049.92 1.328 7.603 6.225 13.17 16.203 14.508v7.209c0 .605.241 1.185.67 1.613a2.29 2.29 0 001.618.668h4.577c.607 0 1.189-.24 1.619-.668.429-.428.67-1.008.67-1.613v-7.209c9.459-1.49 15.485-8 15.485-16.166z"
		  fill="#fff"></path>
	<path d="M438.067 124.616a45.757 45.757 0 01-21.807-16.708 45.523 45.523 0 01-8.264-26.15 45.524 45.524 0 018.264-26.15 45.754 45.754 0 0121.807-16.706 3.294 3.294 0 001.968-2.875V31.77a2.153 2.153 0 00-.896-1.965 2.169 2.169 0 00-2.155-.21 54.919 54.919 0 00-27.665 19.859 54.634 54.634 0 00-10.58 32.306 54.633 54.633 0 0010.58 32.305 54.92 54.92 0 0027.665 19.859 2.166 2.166 0 003.051-2.175v-4.258a3.293 3.293 0 00-1.968-2.874zM470.548 29.594a2.173 2.173 0 00-2.155.21 2.16 2.16 0 00-.897 1.965v4.258a3.286 3.286 0 001.969 2.874 45.754 45.754 0 0121.807 16.708 45.53 45.53 0 018.263 26.15 45.53 45.53 0 01-8.263 26.149 45.757 45.757 0 01-21.807 16.708 3.036 3.036 0 00-1.969 2.874v4.258a2.152 2.152 0 00.897 1.965 2.165 2.165 0 002.155.21 54.92 54.92 0 0027.665-19.859 54.633 54.633 0 0010.58-32.305 54.634 54.634 0 00-10.58-32.306 54.919 54.919 0 00-27.665-19.859z"
		  fill="#fff"></path>
	<defs>
		<linearGradient id="usdc-hero_svg__paint0_linear" x1="310.574" y1="107.767" x2="231.524" y2="107.767"
						gradientUnits="userSpaceOnUse">
			<stop stop-color="#C2D3E7"></stop>
			<stop offset="1" stop-color="#C2D3E7" stop-opacity="0"></stop>
		</linearGradient>
		<linearGradient id="usdc-hero_svg__paint1_linear" x1="447.348" y1="83.434" x2="374.047" y2="83.434"
						gradientUnits="userSpaceOnUse">
			<stop stop-color="#C2D3E7"></stop>
			<stop offset="1" stop-color="#C2D3E7" stop-opacity="0"></stop>
		</linearGradient>
		<filter id="usdc-hero_svg__filter0_d" x="0" y="13.905" width="247.524" height="146.714"
				filterUnits="userSpaceOnUse" color-interpolation-filters="sRGB">
			<feFlood flood-opacity="0" result="BackgroundImageFix"></feFlood>
			<feColorMatrix in="SourceAlpha" values="0 0 0 0 0 0 0 0 0 0 0 0 0 0 0 0 0 0 127 0"></feColorMatrix>
			<feOffset dy="8"></feOffset>
			<feGaussianBlur stdDeviation="8"></feGaussianBlur>
			<feColorMatrix values="0 0 0 0 0.0666667 0 0 0 0 0.2 0 0 0 0 0.333333 0 0 0 0.16 0"></feColorMatrix>
			<feBlend in2="BackgroundImageFix" result="effect1_dropShadow"></feBlend>
			<feBlend in="SourceGraphic" in2="effect1_dropShadow" result="shape"></feBlend>
		</filter>
		<filter id="usdc-hero_svg__filter1_d" x="364.534" y="0" width="178.464" height="178"
				filterUnits="userSpaceOnUse" color-interpolation-filters="sRGB">
			<feFlood flood-opacity="0" result="BackgroundImageFix"></feFlood>
			<feColorMatrix in="SourceAlpha" values="0 0 0 0 0 0 0 0 0 0 0 0 0 0 0 0 0 0 127 0"></feColorMatrix>
			<feOffset dy="8"></feOffset>
			<feGaussianBlur stdDeviation="8"></feGaussianBlur>
			<feColorMatrix values="0 0 0 0 0.0666667 0 0 0 0 0.2 0 0 0 0 0.333333 0 0 0 0.16 0"></feColorMatrix>
			<feBlend in2="BackgroundImageFix" result="effect1_dropShadow"></feBlend>
			<feBlend in="SourceGraphic" in2="effect1_dropShadow" result="shape"></feBlend>
		</filter>
	</defs>
</svg>