<svg fill="none" xmlns="http://www.w3.org/2000/svg" aria-hidden="true" viewBox="380.52 8 146.48 146.02">
	<g filter="url(#usdc-hero_svg__filter1_d)">
		<path d="M453.766 154a73.394 73.394 0 0040.686-12.303 73.049 73.049 0 0026.972-32.761 72.78 72.78 0 004.167-42.178 72.922 72.922 0 00-20.042-37.377 73.3 73.3 0 00-37.496-19.978 73.447 73.447 0 00-42.311 4.154 73.181 73.181 0 00-32.866 26.886A72.834 72.834 0 00380.534 81a72.882 72.882 0 0021.45 51.619A73.348 73.348 0 00453.766 154z"
			  fill="#2775CA"></path>
	</g>
	<path d="M473.828 92.603c0-10.645-6.499-14.234-19.07-15.953-9.292-1.338-11.077-3.513-11.077-7.832 0-4.32 3.143-7.011 9.154-7.011 5.477 0 8.636 1.9 9.932 6.296a2.331 2.331 0 002.213 1.688h4.805a2.145 2.145 0 001.66-.736 2.12 2.12 0 00.492-1.743c-1.526-6.95-6.225-11.132-13.594-12.44v-7.33c0-.606-.241-1.186-.67-1.614a2.295 2.295 0 00-1.619-.668h-4.577c-.607 0-1.189.24-1.618.668a2.278 2.278 0 00-.67 1.613v7.072c-9.154 1.278-14.936 7.3-14.936 15.026 0 9.992 6.102 13.87 18.857 15.589 8.681 1.414 11.152 3.285 11.152 8.197 0 4.912-4.195 8.212-10.115 8.212-7.979 0-10.679-3.482-11.579-8a2.314 2.314 0 00-2.243-1.855h-5.218a2.14 2.14 0 00-2.072 1.56c-.083.3-.1.613-.049.92 1.328 7.603 6.225 13.17 16.203 14.508v7.209c0 .605.241 1.185.67 1.613a2.29 2.29 0 001.618.668h4.577c.607 0 1.189-.24 1.619-.668.429-.428.67-1.008.67-1.613v-7.209c9.459-1.49 15.485-8 15.485-16.166z"
		  fill="#fff"></path>
	<path d="M438.067 124.616a45.757 45.757 0 01-21.807-16.708 45.523 45.523 0 01-8.264-26.15 45.524 45.524 0 018.264-26.15 45.754 45.754 0 0121.807-16.706 3.294 3.294 0 001.968-2.875V31.77a2.153 2.153 0 00-.896-1.965 2.169 2.169 0 00-2.155-.21 54.919 54.919 0 00-27.665 19.859 54.634 54.634 0 00-10.58 32.306 54.633 54.633 0 0010.58 32.305 54.92 54.92 0 0027.665 19.859 2.166 2.166 0 003.051-2.175v-4.258a3.293 3.293 0 00-1.968-2.874zM470.548 29.594a2.173 2.173 0 00-2.155.21 2.16 2.16 0 00-.897 1.965v4.258a3.286 3.286 0 001.969 2.874 45.754 45.754 0 0121.807 16.708 45.53 45.53 0 018.263 26.15 45.53 45.53 0 01-8.263 26.149 45.757 45.757 0 01-21.807 16.708 3.036 3.036 0 00-1.969 2.874v4.258a2.152 2.152 0 00.897 1.965 2.165 2.165 0 002.155.21 54.92 54.92 0 0027.665-19.859 54.633 54.633 0 0010.58-32.305 54.634 54.634 0 00-10.58-32.306 54.919 54.919 0 00-27.665-19.859z"
		  fill="#fff"></path>
	<defs>
		<filter id="usdc-hero_svg__filter1_d" x="364.534" y="0" width="178.464" height="178"
				filterUnits="userSpaceOnUse" color-interpolation-filters="sRGB">
			<feFlood flood-opacity="0" result="BackgroundImageFix"></feFlood>
			<feColorMatrix in="SourceAlpha" values="0 0 0 0 0 0 0 0 0 0 0 0 0 0 0 0 0 0 127 0"></feColorMatrix>
			<feOffset dy="8"></feOffset>
			<feGaussianBlur stdDeviation="8"></feGaussianBlur>
			<feColorMatrix values="0 0 0 0 0.0666667 0 0 0 0 0.2 0 0 0 0 0.333333 0 0 0 0.16 0"></feColorMatrix>
			<feBlend in2="BackgroundImageFix" result="effect1_dropShadow"></feBlend>
			<feBlend in="SourceGraphic" in2="effect1_dropShadow" result="shape"></feBlend>
		</filter>
	</defs>
</svg>